<svg width="48" height="46" viewBox="0 0 48 46" fill="none" xmlns="http://www.w3.org/2000/svg">
  <g clip-path="url(#clip0_10030_28971)">
    <rect width="48" height="45.0909" rx="10" fill="white" />
    <path fill-rule="evenodd" clip-rule="evenodd"
      d="M48 22.5455C48 28.5249 45.4714 34.2594 40.9706 38.4875C36.4697 42.7156 30.3652 45.0909 24 45.0909C17.6348 45.0909 11.5303 42.7156 7.02944 38.4875C2.52856 34.2594 0 28.5249 0 22.5455C0 16.566 2.52856 10.8315 7.02944 6.60341C11.5303 2.37532 17.6348 0 24 0C30.3652 0 36.4697 2.37532 40.9706 6.60341C45.4714 10.8315 48 16.566 48 22.5455ZM36.09 14.0064C35.8757 13.8058 35.6206 13.6478 35.3398 13.542C35.059 13.4361 34.7584 13.3846 34.456 13.3903C34.1535 13.3961 33.8554 13.4592 33.5795 13.5757C33.3035 13.6922 33.0554 13.8597 32.85 14.0684L22.431 26.5388L16.152 20.6375C15.7255 20.2642 15.1613 20.0609 14.5784 20.0706C13.9955 20.0803 13.4394 20.3021 13.0271 20.6893C12.6149 21.0766 12.3788 21.599 12.3685 22.1466C12.3582 22.6942 12.5746 23.2241 12.972 23.6248L20.91 31.0845C21.1238 31.2851 21.3785 31.4431 21.6588 31.5491C21.939 31.6552 22.2391 31.7072 22.5412 31.7019C22.8433 31.6966 23.1412 31.6343 23.4171 31.5185C23.693 31.4028 23.9412 31.236 24.147 31.0282L36.123 16.9655C36.5313 16.5667 36.7568 16.0334 36.7512 15.4802C36.7456 14.9269 36.5093 14.3978 36.093 14.0064H36.09Z"
      fill="#48B853" />
  </g>
  <defs>
    <clipPath id="clip0_10030_28971">
      <rect width="48" height="45.0909" rx="10" fill="white" />
    </clipPath>
  </defs>
</svg>