<svg width="18" height="18" viewBox="0 0 18 18" fill="none" xmlns="http://www.w3.org/2000/svg">
<path d="M5.70833 5.18182H6.83337C7.01537 4.14382 7.78292 3.28691 8.82346 3.01745C9.11 2.94273 9.40792 3.11836 9.48321 3.40964C9.55796 3.70145 9.383 3.99873 9.09321 4.07345C8.37604 4.25945 7.875 4.91127 7.875 5.65855V11.7273H13.8333C14.4308 11.7273 14.9167 11.238 14.9167 10.6364V8.45455H13.5625C13.263 8.45455 13.0208 8.21018 13.0208 7.90909C13.0208 7.608 13.263 7.36364 13.5625 7.36364H14.9167C15.5141 7.36364 16 7.85291 16 8.45455V10.6364C16 11.6618 15.2937 12.5242 14.3452 12.7565C14.3647 12.8662 14.375 12.978 14.375 13.0909C14.375 14.1436 13.5246 15 12.4792 15C11.4337 15 10.5833 14.1436 10.5833 13.0909C10.5833 12.9987 10.5904 12.9082 10.6034 12.8182H8.39663C8.40963 12.9082 8.41667 12.9987 8.41667 13.0909C8.41667 14.1436 7.56625 15 6.52083 15C5.47542 15 4.625 14.1436 4.625 13.0909C4.625 12.978 4.63529 12.8662 4.65479 12.7565C3.70633 12.5242 3 11.6618 3 10.6364V7.90909C3 6.40527 4.21496 5.18182 5.70833 5.18182ZM4.08333 7.90909V8.45455H6.79167V6.27273H5.70833C4.81242 6.27273 4.08333 7.00691 4.08333 7.90909ZM11.6667 13.0909C11.6667 13.542 12.0312 13.9091 12.4792 13.9091C12.9271 13.9091 13.2917 13.542 13.2917 13.0909C13.2917 12.9878 13.2716 12.8967 13.2424 12.8182H11.7154C11.6862 12.8967 11.6661 12.9878 11.6661 13.0909H11.6667ZM6.52083 13.9091C6.96879 13.9091 7.33333 13.542 7.33333 13.0909C7.33333 12.9878 7.31329 12.8967 7.28404 12.8182H5.75708C5.72783 12.8967 5.70779 12.9878 5.70779 13.0909C5.70779 13.542 6.07288 13.9091 6.52083 13.9091ZM5.16667 11.7273H6.79167V9.54545H4.08333V10.6364C4.08333 11.238 4.56921 11.7273 5.16667 11.7273ZM16 3.54545C16 3.24436 15.7579 3 15.4583 3H11.0416C10.742 3 10.4999 3.24436 10.4999 3.54545C10.4999 3.84655 10.742 4.09091 11.0416 4.09091H15.4583C15.7579 4.09091 16 3.84655 16 3.54545ZM16 5.72727C16 5.42618 15.7579 5.18182 15.4583 5.18182H12.1249C11.8254 5.18182 11.5832 5.42618 11.5832 5.72727C11.5832 6.02836 11.8254 6.27273 12.1249 6.27273H15.4583C15.7579 6.27273 16 6.02836 16 5.72727Z" fill="#241D1D"/>
</svg>
